<svg width="1400" height="1037" viewBox="0 0 1400 1037" fill="none" xmlns="http://www.w3.org/2000/svg">
<g opacity="0.2">
<path d="M735.786 342.388L939.711 698.887C956.534 728.312 935.208 764.922 901.319 764.78L490.626 763.134C456.737 762.992 435.698 726.212 452.765 696.93L659.549 342.083C676.615 312.8 718.98 312.969 735.826 342.383L735.786 342.388Z" stroke="url(#paint0_linear_1953_11728)" stroke-width="4" stroke-miterlimit="10"/>
<path opacity="0.95" d="M746.094 331.654L954.149 695.383C975.51 732.713 948.429 779.179 905.429 779.001L486.395 777.321C443.373 777.153 416.688 730.482 438.333 693.313L649.312 331.264C670.973 294.102 724.739 294.307 746.094 331.654Z" stroke="url(#paint1_linear_1953_11728)" stroke-width="4" stroke-miterlimit="10"/>
<path opacity="0.9" d="M756.386 320.899L968.572 691.857C994.465 737.11 961.651 793.421 909.525 793.201L482.172 791.476C430.039 791.273 397.692 734.704 423.932 689.655L639.099 320.421C665.356 275.378 730.516 275.635 756.386 320.899Z" stroke="url(#paint2_linear_1953_11728)" stroke-width="4" stroke-miterlimit="10"/>
<path opacity="0.86" d="M766.696 310.152L983.028 688.347C1013.44 741.516 974.897 807.655 913.637 807.41L477.96 805.657C416.716 805.417 378.707 738.951 409.536 686.039L628.897 309.603C659.732 256.673 736.304 256.989 766.712 310.158L766.696 310.152Z" stroke="url(#paint3_linear_1953_11728)" stroke-width="4" stroke-miterlimit="10"/>
<path opacity="0.81" d="M776.992 299.396L997.454 684.82C1032.4 745.895 988.106 821.89 917.736 821.608L473.717 819.821C403.347 819.539 359.669 743.193 395.115 682.39L618.672 298.752C654.095 237.959 742.051 238.305 776.992 299.396Z" stroke="url(#paint4_linear_1953_11728)" stroke-width="4" stroke-miterlimit="10"/>
<path opacity="0.76" d="M787.292 288.665L1011.89 681.319C1051.35 750.31 1001.32 836.15 921.84 835.832L469.496 834.017C390.015 833.699 340.675 747.456 380.694 678.782L608.439 287.96C648.457 219.287 747.808 219.684 787.27 288.675L787.292 288.665Z" stroke="url(#paint5_linear_1953_11728)" stroke-width="4" stroke-miterlimit="10"/>
<path opacity="0.71" d="M797.576 277.91L1026.3 677.795C1070.29 754.708 1014.53 850.393 925.926 850.033L465.257 848.19C376.666 847.836 321.664 751.695 366.277 675.142L598.217 277.117C642.83 200.564 753.575 201.013 797.57 277.927L797.576 277.91Z" stroke="url(#paint6_linear_1953_11728)" stroke-width="4" stroke-miterlimit="10"/>
<path opacity="0.67" d="M807.891 267.16L1040.77 674.264C1089.28 759.077 1027.78 864.623 930.067 864.227L461.063 862.333C363.345 861.937 302.696 755.905 351.898 671.488L588.033 266.262C637.235 181.845 759.381 182.33 807.897 267.144L807.891 267.16Z" stroke="url(#paint7_linear_1953_11728)" stroke-width="4" stroke-miterlimit="10"/>
<path opacity="0.62" d="M818.187 256.429L1055.19 670.762C1108.24 763.498 1040.99 878.883 934.166 878.451L456.837 876.529C350.009 876.097 283.692 760.184 337.489 667.887L577.817 255.459C631.598 163.156 765.139 163.694 818.187 256.429Z" stroke="url(#paint8_linear_1953_11728)" stroke-width="4" stroke-miterlimit="10"/>
<path opacity="0.57" d="M828.48 245.676L1069.62 667.239C1127.18 767.891 1054.22 893.111 938.263 892.653L452.609 890.703C336.653 890.228 264.69 764.424 323.082 664.247L567.599 244.634C625.975 144.45 770.911 145.04 828.48 245.676Z" stroke="url(#paint9_linear_1953_11728)" stroke-width="4" stroke-miterlimit="10"/>
<path opacity="0.52" d="M838.789 234.925L1084.07 663.724C1146.17 772.281 1067.46 907.357 942.391 906.863L448.395 904.879C323.33 904.368 245.704 768.667 308.669 660.62L557.38 233.805C620.351 125.741 776.681 126.384 838.783 234.941L838.789 234.925Z" stroke="url(#paint10_linear_1953_11728)" stroke-width="4" stroke-miterlimit="10"/>
<path opacity="0.48" d="M849.083 224.169L1098.5 660.198C1165.11 776.672 1080.67 921.592 946.488 921.062L444.168 919.05C309.986 918.52 226.698 772.921 294.263 656.978L547.17 222.961C614.729 107.034 782.466 107.695 849.083 224.169Z" stroke="url(#paint11_linear_1953_11728)" stroke-width="4" stroke-miterlimit="10"/>
<path opacity="0.43" d="M859.375 213.439L1112.92 656.697C1184.07 781.094 1093.88 935.853 950.589 935.27L439.95 933.213C296.641 932.641 207.707 777.151 279.861 653.344L536.956 212.142C609.11 88.3347 788.226 89.0424 859.375 213.439Z" stroke="url(#paint12_linear_1953_11728)" stroke-width="4" stroke-miterlimit="10"/>
<path opacity="0.38" d="M869.69 202.69L1127.36 653.178C1203.05 785.48 1107.12 950.101 954.707 949.476L435.727 947.385C283.307 946.777 188.711 781.39 265.46 649.702L526.75 201.299C603.482 69.6051 794.009 70.3711 869.696 202.673L869.69 202.69Z" stroke="url(#paint13_linear_1953_11728)" stroke-width="4" stroke-miterlimit="10"/>
<path opacity="0.33" d="M879.982 191.936L1141.8 649.66C1222.01 789.878 1120.35 964.328 958.819 963.683L431.514 961.564C269.984 960.92 169.725 785.636 251.046 646.078L516.531 190.473C597.858 50.8991 799.78 51.7174 879.982 191.936Z" stroke="url(#paint14_linear_1953_11728)" stroke-width="4" stroke-miterlimit="10"/>
<path opacity="0.29" d="M890.287 181.185L1156.24 646.139C1240.97 794.28 1133.57 978.568 962.927 977.887L427.28 975.734C256.623 975.048 150.712 789.889 236.635 642.435L506.313 179.628C592.23 32.1903 805.552 33.0443 890.277 181.162L890.287 181.185Z" stroke="url(#paint15_linear_1953_11728)" stroke-width="4" stroke-miterlimit="10"/>
<path opacity="0.24" d="M900.574 170.448L1170.68 642.621C1259.93 798.662 1146.81 992.818 967.039 992.095L423.068 989.914C243.3 989.191 131.727 794.135 222.238 638.817L496.105 168.825C586.616 13.5073 811.317 14.4075 900.574 170.448Z" stroke="url(#paint16_linear_1953_11728)" stroke-width="4" stroke-miterlimit="10"/>
<path opacity="0.19" d="M910.881 159.701L1185.1 639.098C1278.89 803.061 1160.01 1007.06 971.133 1006.3L418.837 1004.09C229.959 1003.33 112.723 798.375 207.829 635.177L485.891 157.983C580.997 -5.21446 817.093 -4.26202 910.881 159.701Z" stroke="url(#paint17_linear_1953_11728)" stroke-width="4" stroke-miterlimit="10"/>
<path opacity="0.14" d="M921.179 148.945L1199.54 635.595C1297.86 807.463 1173.26 1021.3 975.251 1020.5L414.613 1018.26C216.608 1017.46 93.7205 802.63 193.405 631.546L475.678 147.156C575.362 -23.9284 822.869 -22.9175 921.179 148.945Z" stroke="url(#paint18_linear_1953_11728)" stroke-width="4" stroke-miterlimit="10"/>
<path opacity="0.1" d="M931.488 138.198L1213.98 632.077C1316.82 811.862 1186.48 1035.55 979.357 1034.73L410.4 1032.44C203.285 1031.6 74.7351 806.876 179.008 627.928L465.47 136.353C569.743 -42.5946 828.651 -41.5479 931.476 138.231L931.488 138.198Z" stroke="url(#paint19_linear_1953_11728)" stroke-width="4" stroke-miterlimit="10"/>
</g>
<defs>
<linearGradient id="paint0_linear_1953_11728" x1="672.797" y1="834.445" x2="771.393" y2="338.414" gradientUnits="userSpaceOnUse">
<stop offset="0.229167" stop-color="#16A394"/>
<stop offset="0.588542" stop-color="#5A67D8"/>
</linearGradient>
<linearGradient id="paint1_linear_1953_11728" x1="669.257" y1="849.755" x2="774.38" y2="321.584" gradientUnits="userSpaceOnUse">
<stop offset="0.229167" stop-color="#16A394"/>
<stop offset="0.588542" stop-color="#5A67D8"/>
</linearGradient>
<linearGradient id="paint2_linear_1953_11728" x1="665.728" y1="865.026" x2="777.373" y2="304.73" gradientUnits="userSpaceOnUse">
<stop offset="0.229167" stop-color="#16A394"/>
<stop offset="0.588542" stop-color="#5A67D8"/>
</linearGradient>
<linearGradient id="paint3_linear_1953_11728" x1="662.214" y1="880.324" x2="780.381" y2="287.896" gradientUnits="userSpaceOnUse">
<stop offset="0.229167" stop-color="#16A394"/>
<stop offset="0.588542" stop-color="#5A67D8"/>
</linearGradient>
<linearGradient id="paint4_linear_1953_11728" x1="658.67" y1="895.607" x2="783.363" y2="271.04" gradientUnits="userSpaceOnUse">
<stop offset="0.229167" stop-color="#16A394"/>
<stop offset="0.588542" stop-color="#5A67D8"/>
</linearGradient>
<linearGradient id="paint5_linear_1953_11728" x1="655.133" y1="910.914" x2="786.347" y2="254.234" gradientUnits="userSpaceOnUse">
<stop offset="0.229167" stop-color="#16A394"/>
<stop offset="0.588542" stop-color="#5A67D8"/>
</linearGradient>
<linearGradient id="paint6_linear_1953_11728" x1="651.596" y1="926.203" x2="789.332" y2="237.38" gradientUnits="userSpaceOnUse">
<stop offset="0.229167" stop-color="#16A394"/>
<stop offset="0.588542" stop-color="#5A67D8"/>
</linearGradient>
<linearGradient id="paint7_linear_1953_11728" x1="648.097" y1="941.464" x2="792.354" y2="220.514" gradientUnits="userSpaceOnUse">
<stop offset="0.229167" stop-color="#16A394"/>
<stop offset="0.588542" stop-color="#5A67D8"/>
</linearGradient>
<linearGradient id="paint8_linear_1953_11728" x1="644.562" y1="956.776" x2="795.34" y2="203.699" gradientUnits="userSpaceOnUse">
<stop offset="0.229167" stop-color="#16A394"/>
<stop offset="0.588542" stop-color="#5A67D8"/>
</linearGradient>
<linearGradient id="paint9_linear_1953_11728" x1="641.029" y1="972.064" x2="798.326" y2="186.857" gradientUnits="userSpaceOnUse">
<stop offset="0.229167" stop-color="#16A394"/>
<stop offset="0.588542" stop-color="#5A67D8"/>
</linearGradient>
<linearGradient id="paint10_linear_1953_11728" x1="637.512" y1="987.356" x2="801.334" y2="170.024" gradientUnits="userSpaceOnUse">
<stop offset="0.229167" stop-color="#16A394"/>
<stop offset="0.588542" stop-color="#5A67D8"/>
</linearGradient>
<linearGradient id="paint11_linear_1953_11728" x1="633.965" y1="1002.65" x2="804.307" y2="153.156" gradientUnits="userSpaceOnUse">
<stop offset="0.229167" stop-color="#16A394"/>
<stop offset="0.588542" stop-color="#5A67D8"/>
</linearGradient>
<linearGradient id="paint12_linear_1953_11728" x1="630.447" y1="1017.93" x2="807.307" y2="136.327" gradientUnits="userSpaceOnUse">
<stop offset="0.229167" stop-color="#16A394"/>
<stop offset="0.588542" stop-color="#5A67D8"/>
</linearGradient>
<linearGradient id="paint13_linear_1953_11728" x1="626.926" y1="1033.22" x2="810.311" y2="119.47" gradientUnits="userSpaceOnUse">
<stop offset="0.229167" stop-color="#16A394"/>
<stop offset="0.588542" stop-color="#5A67D8"/>
</linearGradient>
<linearGradient id="paint14_linear_1953_11728" x1="623.397" y1="1048.51" x2="813.302" y2="102.636" gradientUnits="userSpaceOnUse">
<stop offset="0.229167" stop-color="#16A394"/>
<stop offset="0.588542" stop-color="#5A67D8"/>
</linearGradient>
<linearGradient id="paint15_linear_1953_11728" x1="619.862" y1="1063.8" x2="816.291" y2="85.7794" gradientUnits="userSpaceOnUse">
<stop offset="0.229167" stop-color="#16A394"/>
<stop offset="0.588542" stop-color="#5A67D8"/>
</linearGradient>
<linearGradient id="paint16_linear_1953_11728" x1="616.345" y1="1079.09" x2="819.291" y2="68.9664" gradientUnits="userSpaceOnUse">
<stop offset="0.229167" stop-color="#16A394"/>
<stop offset="0.588542" stop-color="#5A67D8"/>
</linearGradient>
<linearGradient id="paint17_linear_1953_11728" x1="612.802" y1="1094.38" x2="822.269" y2="52.1121" gradientUnits="userSpaceOnUse">
<stop offset="0.229167" stop-color="#16A394"/>
<stop offset="0.588542" stop-color="#5A67D8"/>
</linearGradient>
<linearGradient id="paint18_linear_1953_11728" x1="609.276" y1="1109.67" x2="825.268" y2="35.2701" gradientUnits="userSpaceOnUse">
<stop offset="0.229167" stop-color="#16A394"/>
<stop offset="0.588542" stop-color="#5A67D8"/>
</linearGradient>
<linearGradient id="paint19_linear_1953_11728" x1="605.752" y1="1124.96" x2="828.261" y2="18.4599" gradientUnits="userSpaceOnUse">
<stop offset="0.229167" stop-color="#16A394"/>
<stop offset="0.588542" stop-color="#5A67D8"/>
</linearGradient>
</defs>
</svg>
